<?xml version="1.0" standalone="no"?>
<!DOCTYPE svg PUBLIC "-//W3C//DTD SVG 20010904//EN"
 "http://www.w3.org/TR/2001/REC-SVG-20010904/DTD/svg10.dtd">
<svg version="1.0" xmlns="http://www.w3.org/2000/svg"
 width="200.000000pt" height="200.000000pt" viewBox="0 0 200.000000 200.000000"
 preserveAspectRatio="xMidYMid meet">
<metadata>
Created by potrace 1.15, written by Peter Selinger 2001-2017
</metadata>
<g transform="translate(0.000000,200.000000) scale(0.100000,-0.100000)"
fill="#000000" stroke="none">
<path d="M524 1770 c-69 -41 -183 -143 -239 -215 -136 -175 -200 -430 -161
-639 19 -99 62 -215 82 -223 8 -3 11 -9 8 -14 -3 -5 -1 -8 4 -7 5 2 24 -10 41
-25 28 -24 30 -31 19 -45 -9 -11 -10 -14 0 -8 7 4 12 1 12 -9 0 -9 -5 -13 -11
-10 -6 4 -5 -1 2 -13 9 -15 15 -17 25 -8 9 8 9 13 0 18 -7 5 -6 8 5 8 20 0 59
-37 59 -56 0 -8 4 -12 10 -9 5 3 10 -1 10 -10 0 -9 -4 -13 -10 -10 -5 3 -10 1
-10 -5 0 -7 8 -9 19 -5 12 3 21 0 25 -10 5 -13 1 -15 -16 -10 l-21 7 22 -31
c20 -27 28 -31 62 -29 29 2 36 6 26 13 -17 13 1 64 21 58 6 -3 9 -9 6 -15 -3
-5 4 -20 16 -33 20 -21 21 -24 6 -59 l-16 -37 53 -24 c56 -25 121 -39 111 -24
-3 5 -18 9 -35 9 -16 0 -29 4 -29 10 0 13 52 8 68 -6 6 -7 12 -20 12 -29 0
-16 23 -28 80 -40 l35 -7 -22 21 c-13 12 -23 27 -24 34 0 7 -2 22 -5 35 -2 12
1 22 7 22 13 0 79 -72 73 -81 -2 -4 8 -15 22 -24 15 -9 24 -12 20 -7 -4 6 2
10 14 9 10 -1 22 -7 24 -14 10 -24 226 -9 296 20 27 11 36 13 64 15 12 2 16 7
12 18 -6 15 -4 15 11 3 9 -8 14 -9 11 -4 -4 6 3 17 14 24 18 11 20 11 15 -3
-5 -13 -2 -13 18 -4 14 6 25 15 25 20 0 4 7 8 15 8 8 0 25 5 39 12 19 8 23 15
16 23 -8 9 -4 11 15 7 14 -2 25 0 25 4 0 5 14 15 31 23 47 20 174 155 222 235
167 274 168 583 3 860 -55 91 -163 202 -260 265 l-79 51 -421 0 -421 0 -51
-30z m44 -670 c-61 -32 -101 -101 -65 -113 9 -3 9 -7 -1 -20 -10 -12 -11 -20
-2 -34 10 -17 11 -17 6 2 -5 16 -1 20 19 21 14 1 25 -2 25 -6 0 -13 48 -18 59
-7 8 8 11 7 11 -4 1 -7 7 1 15 19 15 35 26 40 45 17 32 -38 -24 -91 -92 -87
-15 1 -30 -3 -33 -8 -4 -6 13 -10 45 -10 43 0 55 5 88 34 34 31 37 39 37 86 0
47 -3 55 -37 86 -21 19 -38 36 -38 39 0 2 15 2 33 -2 42 -8 102 -46 123 -79
13 -19 19 -22 25 -12 6 9 12 2 22 -22 26 -59 1 -91 -92 -119 -36 -11 -85 -21
-108 -23 -32 -1 -43 -6 -43 -18 0 -13 -8 -15 -36 -12 l-37 5 19 -26 c10 -15
23 -27 27 -27 5 0 5 -4 2 -10 -7 -12 -3 -12 19 -4 9 3 16 13 16 22 0 15 2 14
17 -1 16 -16 16 -18 0 -35 -13 -13 -20 -14 -25 -5 -6 10 -14 9 -35 -2 -24 -12
-28 -12 -37 3 -8 14 -9 14 -10 2 0 -13 -1 -13 -10 0 -10 16 -69 22 -87 7 -9
-6 -13 -6 -13 1 0 6 -8 9 -17 5 -16 -5 -15 -4 1 9 14 11 16 17 7 22 -6 4 -19
2 -27 -5 -12 -10 -13 -9 -7 7 5 16 4 17 -8 7 -11 -9 -14 -6 -15 18 -1 34 -39
72 -64 64 -11 -3 -17 0 -17 10 0 9 6 14 12 11 7 -2 21 17 32 44 25 58 131 147
185 154 3 1 10 4 14 9 4 4 26 7 48 7 l41 -1 -37 -19z m985 -453 c-3 -5 5 -6
18 -3 20 6 21 5 6 -4 -9 -6 -21 -9 -26 -5 -11 6 -25 -31 -17 -44 3 -5 -2 -8
-11 -7 -9 0 -18 -6 -20 -14 -3 -11 -2 -11 4 -3 12 17 51 5 58 -18 7 -20 25
-26 25 -9 0 6 4 10 9 10 6 0 9 -9 8 -20 -1 -13 -6 -19 -16 -15 -11 4 -11 3 -2
-9 10 -12 8 -17 -11 -27 -32 -17 -48 -35 -48 -54 0 -9 -9 -19 -20 -22 -11 -3
-20 -12 -20 -20 0 -12 -7 -13 -27 -8 -65 16 -71 49 -8 43 30 -4 42 -2 37 6 -3
6 -8 21 -10 33 -2 17 1 21 13 17 8 -3 15 -1 15 4 0 9 -37 28 -50 25 -3 -1 -11
5 -18 13 -11 12 -10 14 3 14 8 0 15 5 15 11 0 5 4 8 9 4 14 -8 25 15 13 27
-13 13 12 43 27 33 6 -3 8 8 6 25 -4 26 -1 29 20 28 13 -1 21 -6 18 -11z"/>
</g>
</svg>
